<?xml version="1.0" standalone="no"?><!DOCTYPE svg PUBLIC "-//W3C//DTD SVG 1.1//EN" "http://www.w3.org/Graphics/SVG/1.1/DTD/svg11.dtd"><svg t="1685617974527" class="icon" viewBox="0 0 1024 1024" version="1.1" xmlns="http://www.w3.org/2000/svg" p-id="5113" xmlns:xlink="http://www.w3.org/1999/xlink" width="200" height="200"><path d="M512 42.666667C252.8 42.666667 42.666667 252.8 42.666667 512s210.133333 469.333333 469.333333 469.333333 469.333333-210.133333 469.333333-469.333333S771.2 42.666667 512 42.666667zM118.826667 374.08c0-29.013333 23.573333-52.586667 52.586666-52.586667 1.066667 0 2.026667 0.533333 3.093334 0.64C236.48 192.853333 367.786667 107.84 513.066667 107.84c170.133333 0 319.68 114.666667 363.626666 278.826667 3.093333 11.413333-3.733333 23.04-15.04 26.133333-1.92 0.533333-3.733333 0.746667-5.546666 0.746667-9.386667 0-18.026667-6.293333-20.586667-15.786667C796.586667 252.053333 663.893333 150.506667 513.066667 150.506667c-129.493333 0-246.293333 76.16-301.013334 191.68 7.04 8.96 11.84 19.733333 11.84 32 0 29.013333-23.573333 52.586667-52.586666 52.586666-29.013333-0.106667-52.48-23.68-52.48-52.693333z m437.013333 87.04c-13.76 5.013333-28.373333 8.213333-43.84 8.213333-8.853333 0-17.6-0.96-25.92-2.666666L429.866667 610.986667c23.68 15.146667 39.466667 41.6 39.466666 71.68 0 47.04-38.293333 85.333333-85.333333 85.333333s-85.333333-38.293333-85.333333-85.333333 38.293333-85.333333 85.333333-85.333334c1.813333 0 3.413333 0.426667 5.226667 0.533334l57.28-147.093334c-37.226667-22.4-62.506667-62.826667-62.506667-109.333333 0-70.613333 57.386667-128 128-128s128 57.386667 128 128c0 39.786667-18.666667 74.88-47.146667 98.453333l78.506667 137.386667c3.733333-0.64 7.466667-1.173333 11.306667-1.173333 35.306667 0 64 28.693333 64 64s-28.693333 64-64 64-64-28.693333-64-64c0-15.893333 6.08-30.293333 15.68-41.493334l-78.506667-137.493333z m296.746667 241.386667c-1.066667 0-2.026667-0.533333-3.093334-0.64C787.52 831.146667 656.213333 916.16 510.933333 916.16c-170.133333 0-319.68-114.666667-363.626666-278.826667-3.093333-11.413333 3.733333-23.04 15.04-26.133333 11.52-2.773333 23.04 3.733333 26.133333 15.04C227.52 771.84 360.106667 873.493333 510.933333 873.493333c129.493333 0 246.293333-76.16 301.013334-191.68-7.04-8.96-11.84-19.733333-11.84-32 0-29.013333 23.573333-52.586667 52.586666-52.586666 29.013333 0 52.586667 23.573333 52.586667 52.586666s-23.573333 52.693333-52.693333 52.693334z" p-id="5114"></path></svg>